<svg width="24" height="24" viewBox="0 0 24 24" fill="none" xmlns="http://www.w3.org/2000/svg">
<path d="M1.21875 14.8594H1.85063V2.625C1.85063 2.53798 1.88519 2.45452 1.94673 2.39298C2.00826 2.33144 2.09173 2.29687 2.17875 2.29687H11.1094V1.21875C11.1094 1.13173 11.1439 1.04827 11.2055 0.986731C11.267 0.925195 11.3505 0.890625 11.4375 0.890625H12.5625C12.6495 0.890625 12.733 0.925195 12.7945 0.986731C12.8561 1.04827 12.8906 1.13173 12.8906 1.21875V2.29687H21.8212C21.9083 2.29687 21.9917 2.33144 22.0533 2.39298C22.1148 2.45452 22.1494 2.53798 22.1494 2.625V14.8594H22.7812C22.8683 14.8594 22.9517 14.8939 23.0133 14.9555C23.0748 15.017 23.1094 15.1005 23.1094 15.1875V16.875C23.1094 16.962 23.0748 17.0455 23.0133 17.107C22.9517 17.1686 22.8683 17.2031 22.7812 17.2031H15.2529L17.5751 21.8186C17.6813 22.0296 17.6993 22.2742 17.6251 22.4985C17.551 22.7228 17.3908 22.9084 17.1798 23.0146C16.9688 23.1208 16.7242 23.1388 16.4999 23.0646C16.2756 22.9905 16.09 22.8303 15.9838 22.6192L13.2585 17.2031H10.7415L8.016 22.6196C7.96338 22.7241 7.8907 22.8172 7.80211 22.8935C7.71352 22.9699 7.61076 23.0281 7.49968 23.0647C7.38861 23.1014 7.2714 23.1158 7.15476 23.1072C7.03811 23.0986 6.9243 23.067 6.81984 23.0144C6.71538 22.9618 6.62231 22.8891 6.54593 22.8005C6.46956 22.7119 6.41138 22.6092 6.37472 22.4981C6.33806 22.387 6.32364 22.2698 6.33228 22.1532C6.34092 22.0365 6.37244 21.9227 6.42506 21.8182L8.74706 17.2031H1.21875C1.13173 17.2031 1.04827 17.1686 0.986731 17.107C0.925196 17.0455 0.890625 16.962 0.890625 16.875V15.1875C0.890625 15.1005 0.925196 15.017 0.986731 14.9555C1.04827 14.8939 1.13173 14.8594 1.21875 14.8594ZM12.2344 1.54687H11.7656V2.29687H12.2344V1.54687ZM21.4931 2.95312H2.50688V14.8594H21.4931V2.95312ZM16.5699 22.3241C16.5838 22.3516 16.6029 22.3761 16.6262 22.3962C16.6496 22.4163 16.6766 22.4316 16.7058 22.4413C16.7351 22.4509 16.7659 22.4547 16.7966 22.4524C16.8273 22.4501 16.8573 22.4418 16.8847 22.428C16.9122 22.4141 16.9367 22.395 16.9568 22.3717C16.9769 22.3484 16.9922 22.3213 17.0019 22.2921C17.0115 22.2629 17.0153 22.232 17.0131 22.2013C17.0108 22.1706 17.0025 22.1407 16.9886 22.1132L14.5183 17.2031H13.9933L16.5699 22.3241ZM7.011 22.1136C6.99299 22.1493 6.98444 22.1891 6.98617 22.229C6.9879 22.269 6.99984 22.3079 7.02087 22.342C7.04189 22.376 7.07129 22.4041 7.10626 22.4236C7.14123 22.443 7.1806 22.4532 7.22062 22.4531C7.26396 22.4529 7.30641 22.4408 7.34332 22.4181C7.38022 22.3953 7.41017 22.3629 7.42987 22.3243L10.0069 17.2031H9.48187L7.011 22.1136ZM1.54688 16.5469H22.4531V15.5156H1.54688V16.5469Z" fill="#00A449" stroke="#00A449" stroke-width="0.5"/>
</svg>
