<svg width="24" height="18" viewBox="0 0 24 18" fill="none" xmlns="http://www.w3.org/2000/svg">
<path d="M23.5673 5.32049L12.3173 0.0704942C12.218 0.0241231 12.1097 9.15527e-05 12 9.15527e-05C11.8904 9.15527e-05 11.7821 0.0241231 11.6828 0.0704942L0.432786 5.32049C0.303524 5.38088 0.194169 5.47689 0.117554 5.59725C0.0409394 5.71761 0.000244141 5.85732 0.000244141 5.99999C0.000244141 6.14267 0.0409394 6.28238 0.117554 6.40274C0.194169 6.5231 0.303524 6.6191 0.432786 6.67949L4.50004 8.57774V14.25C4.50004 16.3882 7.72504 18 12 18C16.275 18 19.5 16.3882 19.5 14.25V8.57774L21 7.87724V12C21 12.1989 21.0791 12.3897 21.2197 12.5303C21.3604 12.671 21.5511 12.75 21.75 12.75C21.9489 12.75 22.1397 12.671 22.2804 12.5303C22.421 12.3897 22.5 12.1989 22.5 12V7.17749L23.5673 6.67949C23.6965 6.6191 23.8059 6.5231 23.8825 6.40274C23.9591 6.28238 23.9998 6.14267 23.9998 5.99999C23.9998 5.85732 23.9591 5.71761 23.8825 5.59725C23.8059 5.47689 23.6965 5.38088 23.5673 5.32049ZM18 14.25C18 15.168 15.663 16.5 12 16.5C8.33704 16.5 6.00004 15.168 6.00004 14.25V9.27749L11.6828 11.9295C11.7821 11.9759 11.8904 11.9999 12 11.9999C12.1097 11.9999 12.218 11.9759 12.3173 11.9295L16.0673 10.179C16.2444 10.093 16.3806 9.94071 16.4465 9.75513C16.5123 9.56954 16.5025 9.3655 16.4192 9.18707C16.3359 9.00864 16.1857 8.87013 16.0012 8.80145C15.8166 8.73277 15.6125 8.73943 15.4328 8.81999L12 10.425L2.52304 5.99999L12 1.57499L21.4763 5.99999L18.4328 7.42049C18.2917 7.4873 18.1752 7.59689 18.0999 7.73369C18.0246 7.87048 17.9944 8.02753 18.0135 8.18249C18.0079 8.20475 18.0034 8.22728 18 8.24999V14.25Z" fill="#00A449"/>
</svg>
