<svg width="15" height="15" viewBox="0 0 15 15" fill="none" xmlns="http://www.w3.org/2000/svg">
<path d="M3.40415 14.9995V4.87904H0.188732V14.9995H3.40415ZM1.79686 3.49643C2.91813 3.49643 3.61607 2.7193 3.61607 1.74814C3.59518 0.755077 2.91817 -0.000488281 1.81813 -0.000488281C0.718268 -0.000488281 -0.000976562 0.755092 -0.000976562 1.74814C-0.000976562 2.71934 0.69679 3.49643 1.77586 3.49643H1.79676H1.79686ZM5.18387 14.9995H8.39929V9.34775C8.39929 9.04528 8.42018 8.74312 8.50509 8.52689C8.73754 7.92256 9.2666 7.29664 10.1548 7.29664C11.3184 7.29664 11.7838 8.22472 11.7838 9.58522V14.9995H14.9991V9.19646C14.9991 6.08785 13.4127 4.64144 11.2972 4.64144C9.5626 4.64144 8.801 5.65577 8.3779 6.34663H8.39936V4.87883H5.18394C5.22614 5.82848 5.18394 14.9993 5.18394 14.9993L5.18387 14.9995Z" fill="#A9B0B8"/>
</svg>
