<svg width="47" height="46" viewBox="0 0 47 46" fill="none" xmlns="http://www.w3.org/2000/svg">
<path d="M39.9304 16.4067L37.5021 19.9717C38.6637 22.2392 39.2324 24.7534 39.1572 27.289C39.082 29.8245 38.3653 32.3022 37.0712 34.5H9.92873C8.24685 31.6444 7.54993 28.3343 7.9413 25.0605C8.33266 21.7868 9.79147 18.7236 12.1015 16.3251C14.4115 13.9265 17.4496 12.3204 20.7656 11.7447C24.0816 11.1691 27.4989 11.6545 30.5108 13.1292L34.1533 10.7525C30.2945 8.30475 25.6787 7.26409 21.1146 7.81285C16.5505 8.36161 12.3293 10.4648 9.19055 13.7539C6.05182 17.043 4.19577 21.3082 3.94762 25.8022C3.69947 30.2962 5.07504 34.7323 7.83332 38.3333H39.1666C41.5687 35.1924 42.9281 31.4057 43.0611 27.4845C43.1942 23.5634 42.0946 19.6967 39.9108 16.4067H39.9304Z" fill="#0A51A3"/>
<path d="M20.7388 29.5358C21.1025 29.8922 21.5345 30.175 22.01 30.3679C22.4855 30.5608 22.9951 30.6601 23.5098 30.6601C24.0245 30.6601 24.5342 30.5608 25.0097 30.3679C25.4852 30.175 25.9171 29.8922 26.2809 29.5358L37.365 13.2633L20.7388 24.1116C20.3746 24.4677 20.0857 24.8904 19.8886 25.3558C19.6915 25.8211 19.5901 26.32 19.5901 26.8237C19.5901 27.3275 19.6915 27.8263 19.8886 28.2917C20.0857 28.757 20.3746 29.1798 20.7388 29.5358Z" fill="#0A51A3"/>
</svg>
