<svg width="46" height="47" viewBox="0 0 46 47" fill="none" xmlns="http://www.w3.org/2000/svg">
<g clip-path="url(#clip0)">
<path d="M0.932456 8.29287C-0.290072 9.53837 -0.0288236 11.2921 0.944003 12.2805C0.982974 12.3187 4.89016 16.1169 10.385 21.7084C10.4519 21.7772 10.5315 21.8317 10.6192 21.869C10.7069 21.9062 10.801 21.9254 10.896 21.9254C10.991 21.9254 11.0851 21.9062 11.1728 21.869C11.2605 21.8317 11.3401 21.7772 11.4069 21.7084C11.5422 21.5707 11.6182 21.384 11.6182 21.1892C11.6182 20.9945 11.5422 20.8077 11.4069 20.67C10.5785 19.827 9.79038 19.0294 9.04272 18.2745L11.3362 15.9406C11.4677 15.8021 11.5404 15.6166 11.5388 15.4241C11.5371 15.2315 11.4612 15.0473 11.3274 14.9112C11.1936 14.775 11.0126 14.6978 10.8234 14.6961C10.6342 14.6945 10.4519 14.7685 10.3158 14.9022L8.01648 17.242C6.90625 16.1264 5.79245 15.0146 4.6751 13.9064L9.89286 8.5969C10.0243 8.45839 10.0971 8.27289 10.0954 8.08034C10.0938 7.88779 10.0179 7.7036 9.88407 7.56744C9.75026 7.43128 9.56925 7.35405 9.38003 7.35237C9.19081 7.3507 9.00851 7.42472 8.8724 7.55849L3.63876 12.8842C2.57645 11.837 1.96446 11.2421 1.95436 11.2318C1.64981 10.9219 1.25 10.0495 1.95436 9.33274L9.17118 1.98899C9.44974 1.70112 10.1916 1.12977 11.0057 1.95374C11.0418 1.99487 14.6863 6.20724 20.249 11.8678C20.3851 12.0016 20.5674 12.0756 20.7566 12.0739C20.9458 12.0723 21.1269 11.995 21.2607 11.8589C21.3945 11.7227 21.4704 11.5385 21.472 11.346C21.4736 11.1534 21.4009 10.9679 21.2694 10.8294C15.7414 5.20556 12.1243 1.02549 12.0579 0.949118C10.7127 -0.41682 9.09035 -0.00703841 8.15072 0.949118L0.932456 8.29287Z" fill="#0A51A3" stroke="#0A51A3" stroke-width="1.5"/>
<path d="M31.5433 35.4645C31.4079 35.3268 31.2244 35.2494 31.0331 35.2494C30.8417 35.2494 30.6582 35.3268 30.5228 35.4645L28.2264 37.7998C27.4926 37.043 26.7565 36.2886 26.0181 35.5364C25.882 35.4027 25.6997 35.3286 25.5105 35.3303C25.3212 35.332 25.1402 35.4092 25.0064 35.5454C24.8726 35.6815 24.7967 35.8657 24.7951 36.0583C24.7934 36.2508 24.8662 36.4363 24.9976 36.5748C28.0901 39.7138 31.135 42.9008 34.1312 46.1349C34.6263 46.6402 35.3047 46.9178 36.0408 46.9178C36.7986 46.9178 37.565 46.6167 38.0399 46.132L45.2538 38.7045C46.1617 37.7807 46.2136 36.2135 45.3664 35.3484L35.6872 25.5005C35.5511 25.3667 35.3688 25.2927 35.1795 25.2943C34.9903 25.296 34.8093 25.3732 34.6755 25.5094C34.5417 25.6456 34.4658 25.8298 34.4642 26.0223C34.4625 26.2149 34.5353 26.4004 34.6667 26.5389L44.3459 36.3868C44.6346 36.6806 44.5797 37.3151 44.2319 37.6691L37.0165 45.0965C36.8505 45.2669 36.4738 45.449 36.0408 45.449C35.7925 45.449 35.4375 45.3873 35.169 45.1127C35.1546 45.0965 34.5498 44.44 33.5005 43.3223L38.7601 37.9701C38.8916 37.8316 38.9643 37.6461 38.9627 37.4536C38.961 37.261 38.8851 37.0768 38.7513 36.9407C38.6175 36.8045 38.4365 36.7273 38.2473 36.7256C38.0581 36.724 37.8758 36.798 37.7396 36.9317L32.5017 42.2618C31.4199 41.1176 30.3325 39.9788 29.2397 38.8455L31.5433 36.5014C31.6781 36.3637 31.7539 36.1773 31.7539 35.9829C31.7539 35.7886 31.6781 35.6021 31.5433 35.4645Z" fill="#0A51A3" stroke="#0A51A3" stroke-width="1.5"/>
<path d="M0.204986 46.7479C0.297083 46.8435 0.413139 46.9118 0.540596 46.9452C0.668053 46.9786 0.802058 46.9759 0.928111 46.9373L15.3617 42.5619C15.4777 42.5274 15.5831 42.4632 15.6677 42.3754L40.3348 17.1056C40.3695 17.0703 40.3868 17.0248 40.4128 16.9851L45.6897 11.6154C45.8995 11.4035 46.066 11.1514 46.1796 10.8738C46.2932 10.5961 46.3517 10.2983 46.3517 9.99754C46.3517 9.69676 46.2932 9.39896 46.1796 9.1213C46.066 8.84364 45.8995 8.5916 45.6897 8.37971L38.1337 0.692274C37.285 -0.171351 35.8027 -0.171351 34.954 0.692274L29.5572 6.18393C29.5226 6.21918 29.5038 6.26471 29.4778 6.30584L4.77323 31.4464C4.69248 31.5282 4.6321 31.6284 4.59714 31.7387L0.0361127 46.0076C-0.00491986 46.1349 -0.010873 46.2712 0.0189004 46.4018C0.0486738 46.5323 0.113034 46.652 0.204986 46.7479ZM30.1086 7.7408L31.6082 9.26684L9.20291 32.1279L6.71023 31.5522L30.1086 7.7408ZM10.1036 33.2897L32.6301 10.3067L36.1462 13.8846L13.4161 36.7178H10.1036V33.2897ZM38.8034 16.59L15.3574 40.61L14.5246 37.6695L37.1666 14.923L38.8034 16.59ZM5.76338 32.8388L8.66021 33.5086V37.4521C8.66021 37.6469 8.73624 37.8337 8.87159 37.9714C9.00693 38.1091 9.19049 38.1865 9.38189 38.1865H13.1693L14.0844 41.4178L1.8331 45.1322L5.76338 32.8388ZM35.9759 1.73068C36.129 1.58122 36.3331 1.49777 36.5453 1.49777C36.7575 1.49777 36.9615 1.58122 37.1147 1.73068L44.6707 9.41959C44.746 9.49539 44.8059 9.58567 44.8466 9.68519C44.8874 9.78471 44.9083 9.89149 44.9082 9.99932C44.9081 10.1071 44.8869 10.2139 44.8458 10.3133C44.8048 10.4127 44.7448 10.5028 44.6692 10.5784L39.8037 15.5311L31.1103 6.68477L35.9759 1.73068Z" fill="#0A51A3" stroke="#0A51A3" stroke-width="1.5"/>
</g>
<defs>
<clipPath id="clip0">
<rect width="46" height="47" fill="white"/>
</clipPath>
</defs>
</svg>
