<svg width="246" height="246" viewBox="0 0 246 246" fill="none" xmlns="http://www.w3.org/2000/svg">
<path d="M159.488 196.657H142.515V128.479H116.877V111.434H185.055V128.479H159.488V196.657Z" fill="url(#paint0_linear)"/>
<path d="M69.897 126.473V207.471C69.897 221.006 80.9258 232.035 94.4612 232.035H207.471C221.006 232.035 232.035 221.006 232.035 207.471V179.97L226.807 174.241L221.579 179.97V207.471C221.579 215.205 215.277 221.507 207.542 221.507H94.4612C86.7267 221.507 80.4245 215.205 80.4245 207.471V120.314C76.7721 122.105 73.2629 124.182 69.897 126.473Z" fill="url(#paint1_linear)"/>
<path d="M207.471 69.897H126.473C124.182 73.2629 122.105 76.7721 120.314 80.4245H207.471C215.205 80.4245 221.507 86.7267 221.507 94.4612V115.946H226.735H231.963V94.4612C231.963 80.9258 221.006 69.897 207.471 69.897Z" fill="url(#paint2_linear)"/>
<path d="M207.471 55.9316H128.55L133.563 60.9447L131.988 62.8067C130.985 64.0242 129.982 65.2417 129.051 66.4592H207.471C222.94 66.4592 235.472 79.0635 235.472 94.4609V115.946H246V94.4609C246 73.191 228.669 55.9316 207.471 55.9316Z" fill="url(#paint3_linear)"/>
<path d="M61.2315 126.402C62.9503 125.041 64.669 123.752 66.4594 122.463C67.6053 121.675 68.7511 120.888 69.9686 120.171C73.3345 118.023 76.8437 116.089 80.4961 114.442C81.642 113.941 82.7878 113.368 84.0053 112.938C87.4428 111.506 90.952 110.288 94.5328 109.286C98.5433 108.14 102.697 107.352 106.851 106.779C107.424 102.554 108.283 98.4718 109.357 94.3897C110.36 90.8089 111.577 87.2998 113.01 83.8622C113.511 82.7164 114.012 81.4989 114.514 80.3531C116.161 76.7723 118.094 73.2631 120.243 69.8255C120.959 68.6797 121.747 67.4622 122.535 66.3164C123.752 64.526 125.113 62.8072 126.473 61.0884L121.174 55.7889L114.728 49.3435L102.267 36.8823C87.5144 42.9697 74.3372 51.7068 63.0219 63.0221C51.7066 74.3373 42.9695 87.5146 37.0254 102.196L49.4865 114.657L55.9319 121.102L61.2315 126.402Z" fill="url(#paint4_linear)"/>
<path d="M236.332 184.769L235.472 183.838V207.542C235.472 223.011 222.868 235.544 207.471 235.544H94.4611C78.9921 235.544 66.4594 222.94 66.4594 207.542V129.052C65.2419 129.983 64.0245 130.985 62.807 131.988L60.945 133.563L55.9319 128.55V207.471C55.9319 228.741 73.1913 246 94.4611 246H207.471C228.741 246 246 228.741 246 207.471V174.241L238.982 181.904L236.332 184.769Z" fill="url(#paint5_linear)"/>
<path d="M31.511 101.909C37.7416 85.8672 47.0516 71.5441 59.2979 59.2978C71.5442 47.0515 85.8673 37.7415 101.909 31.5109L103.485 30.8664L116.805 44.1869L135.569 0L40.2481 40.248L23.2752 80.3528L18.7634 91.0236L18.5486 91.4533L17.6175 93.6733L16.4717 96.3231L15.3975 98.8297C15.5407 98.9013 15.6839 99.0445 15.8272 99.1161C24.7791 105.418 30.2219 113.439 33.4446 121.317L44.1154 116.805L30.7948 103.485L31.511 101.909Z" fill="url(#paint6_linear)"/>
<path d="M11.745 107.71L0 135.568L24.8507 125.041C22.3441 118.882 18.3336 112.651 11.745 107.71Z" fill="url(#paint7_linear)"/>
<path d="M217.998 115.946V94.4611C217.998 88.6602 213.271 83.9336 207.471 83.9336H118.667C117.163 87.3711 115.874 90.8803 114.8 94.4611L207.542 94.5327V116.017H217.998V115.946Z" fill="url(#paint8_linear)"/>
<path d="M214.561 181.904L207.471 174.17V207.471H94.4612L94.3896 207.399L94.4612 114.729C90.8804 115.803 87.3713 117.092 83.9337 118.596V207.399C83.9337 213.2 88.6603 217.927 94.4612 217.927H207.471C213.272 217.927 217.998 213.2 217.998 207.399V183.694L217.139 184.625L214.561 181.904Z" fill="url(#paint9_linear)"/>
<path d="M40.9643 152.398C40.9643 149.963 39.8184 147.815 38.028 146.454C37.3119 145.881 36.5957 145.523 35.7363 145.237C35.7363 139.436 34.8769 130.985 31.3678 122.391C28.2883 114.872 23.132 107.209 14.5381 101.193C5.80097 95.1057 5.9442 92.7424 5.9442 92.7424C6.44551 91.8114 10.8857 91.0952 16.1136 91.3817L18.0473 86.8699C12.9625 86.3686 3.43765 86.2253 1.57564 91.0952C0.214946 94.7476 3.36604 99.0446 11.8883 104.989C12.1748 105.204 12.3896 105.347 12.6761 105.562C19.8376 110.861 24.2778 117.521 26.9992 124.253C30.1503 132.131 30.9381 139.937 31.0097 145.237C30.1503 145.523 29.3625 145.953 28.718 146.454C26.9276 147.815 25.8534 149.963 25.8534 152.398C25.8534 155.048 27.2141 157.34 29.2193 158.7L25.5669 173.74H41.2507L37.5983 158.7C39.6036 157.34 40.9643 154.976 40.9643 152.398Z" fill="url(#paint10_linear)"/>
<path d="M234.112 141.728H219.359L217.998 144.879L207.542 169.085L217.139 179.541L217.998 178.61L221.507 174.814L226.735 169.085L231.963 174.814L235.472 178.61L236.332 179.541L246 169.085L235.472 144.879L234.112 141.728Z" fill="url(#paint11_linear)"/>
<path d="M226.735 124.754L221.507 136.857L220.648 138.791H232.823L231.963 136.857L226.735 124.754Z" fill="url(#paint12_linear)"/>
<defs>
<linearGradient id="paint0_linear" x1="150.966" y1="111.434" x2="150.966" y2="196.657" gradientUnits="userSpaceOnUse">
<stop stop-color="#00A449"/>
<stop offset="1" stop-color="#0A51A3"/>
</linearGradient>
<linearGradient id="paint1_linear" x1="150.966" y1="120.314" x2="150.966" y2="232.035" gradientUnits="userSpaceOnUse">
<stop stop-color="#00A449"/>
<stop offset="1" stop-color="#0A51A3"/>
</linearGradient>
<linearGradient id="paint2_linear" x1="176.139" y1="69.897" x2="176.139" y2="115.946" gradientUnits="userSpaceOnUse">
<stop stop-color="#00A449"/>
<stop offset="1" stop-color="#0A51A3"/>
</linearGradient>
<linearGradient id="paint3_linear" x1="187.275" y1="55.9316" x2="187.275" y2="115.946" gradientUnits="userSpaceOnUse">
<stop stop-color="#00A449"/>
<stop offset="1" stop-color="#0A51A3"/>
</linearGradient>
<linearGradient id="paint4_linear" x1="81.7494" y1="36.8823" x2="81.7494" y2="126.402" gradientUnits="userSpaceOnUse">
<stop stop-color="#00A449"/>
<stop offset="1" stop-color="#0A51A3"/>
</linearGradient>
<linearGradient id="paint5_linear" x1="150.966" y1="128.55" x2="150.966" y2="246" gradientUnits="userSpaceOnUse">
<stop stop-color="#00A449"/>
<stop offset="1" stop-color="#0A51A3"/>
</linearGradient>
<linearGradient id="paint6_linear" x1="75.483" y1="0" x2="75.483" y2="121.317" gradientUnits="userSpaceOnUse">
<stop stop-color="#00A449"/>
<stop offset="1" stop-color="#0A51A3"/>
</linearGradient>
<linearGradient id="paint7_linear" x1="12.4253" y1="107.71" x2="12.4253" y2="135.568" gradientUnits="userSpaceOnUse">
<stop stop-color="#00A449"/>
<stop offset="1" stop-color="#0A51A3"/>
</linearGradient>
<linearGradient id="paint8_linear" x1="166.399" y1="83.9336" x2="166.399" y2="116.017" gradientUnits="userSpaceOnUse">
<stop stop-color="#00A449"/>
<stop offset="1" stop-color="#0A51A3"/>
</linearGradient>
<linearGradient id="paint9_linear" x1="150.966" y1="114.729" x2="150.966" y2="217.927" gradientUnits="userSpaceOnUse">
<stop stop-color="#00A449"/>
<stop offset="1" stop-color="#0A51A3"/>
</linearGradient>
<linearGradient id="paint10_linear" x1="21.2607" y1="86.6333" x2="21.2607" y2="173.74" gradientUnits="userSpaceOnUse">
<stop stop-color="#00A449"/>
<stop offset="1" stop-color="#0A51A3"/>
</linearGradient>
<linearGradient id="paint11_linear" x1="226.771" y1="141.728" x2="226.771" y2="179.541" gradientUnits="userSpaceOnUse">
<stop stop-color="#00A449"/>
<stop offset="1" stop-color="#0A51A3"/>
</linearGradient>
<linearGradient id="paint12_linear" x1="226.735" y1="124.754" x2="226.735" y2="138.791" gradientUnits="userSpaceOnUse">
<stop stop-color="#00A449"/>
<stop offset="1" stop-color="#0A51A3"/>
</linearGradient>
</defs>
</svg>
